<svg width="11" height="11" viewBox="0 0 11 11" fill="none" xmlns="http://www.w3.org/2000/svg">
<path d="M0.740208 5.21354L0.0366667 4.76163L2.51121 4.47838L3.39304 6.78058L2.69729 6.34013C2.01804 7.44104 1.39425 8.73033 1.79025 9.95913C0.643042 8.98654 0 8.239 0 7.33608C0 6.68433 0.4235 5.80571 0.740208 5.21354V5.21354ZM2.59967 7.79167C2.24996 8.21838 2.14042 9.11487 2.25454 9.65754C2.30679 9.90596 2.52588 10.0833 2.78025 10.0833H5.04167V7.79167H2.59967V7.79167ZM7.50658 10.164V11L5.962 9.04612L7.50658 7.08354V7.90717C8.80046 7.90488 10.164 7.75454 11 6.77096C10.7782 8.25871 10.4816 9.19921 9.71438 9.67496C9.16025 10.0178 8.17713 10.1209 7.50658 10.164ZM8.73125 7.22471C9.27804 7.29712 10.098 6.91808 10.499 6.53492C10.6828 6.35938 10.7181 6.07979 10.5843 5.86392L9.39263 3.94258L7.44471 5.14983L8.73125 7.22471V7.22471ZM8.30179 1.92592L9.03971 1.53221L8.07858 3.83029L5.63888 3.47646L6.36258 3.08413C5.73375 1.95342 4.91333 0.779625 3.64696 0.52525C4.51963 0.199375 5.22271 0 5.81808 0C6.84383 0 7.44058 0.579792 8.30179 1.92592V1.92592ZM5.14433 2.29029C4.94267 1.77696 4.21346 1.243 3.68408 1.078C3.44163 1.00238 3.17992 1.10687 3.05571 1.32871L1.95204 3.30275L3.95221 4.42154L5.14433 2.29029Z" fill="white"/>
</svg>
