<svg width="4" height="17" viewBox="0 0 4 17" fill="none" xmlns="http://www.w3.org/2000/svg">
<path d="M3.85635 0L3.41437 10.4873H0.596685L0.143646 0H3.85635ZM2 12.6662C2.55985 12.6662 3.03131 12.8817 3.41437 13.3127C3.80479 13.7357 4 14.2425 4 14.8331C4 15.4237 3.80479 15.9345 3.41437 16.3655C3.03131 16.7885 2.55985 17 2 17C1.45488 17 0.983425 16.7885 0.585635 16.3655C0.195212 15.9345 0 15.4237 0 14.8331C0 14.2425 0.195212 13.7357 0.585635 13.3127C0.983425 12.8817 1.45488 12.6662 2 12.6662Z" fill="white"/>
</svg>
