<svg width="130" height="49" viewBox="0 0 130 49" fill="none" xmlns="http://www.w3.org/2000/svg">
<path d="M33.1673 7.16313L33.3221 6.02802H32.1765H2H1V7.02802V15.4164V16.4164H2H10.2055V44.9393V45.9393H11.2055H22.4263H23.4263V44.9393V16.4164H31.0326H31.9055L32.0235 15.5515L33.1673 7.16313ZM33.0953 42.6409L33.1 42.6458C36.0143 45.5994 39.9606 47.0287 44.8149 47.0287C48.0063 47.0287 50.8327 46.3628 53.2591 44.9931C55.6848 43.6237 57.5459 41.6623 58.8312 39.1332C60.1506 36.6083 60.7942 33.7044 60.7942 30.4502C60.7942 25.262 59.3997 21.1112 56.4776 18.1481C53.5981 15.1912 49.6673 13.7628 44.8149 13.7628C41.6234 13.7628 38.797 14.4287 36.3706 15.7984C33.9458 17.1673 32.0682 19.1269 30.747 21.6528L30.7469 21.6527L30.7414 21.6636C29.4601 24.1873 28.8356 27.0892 28.8356 30.3413C28.8356 35.5273 30.2106 39.6772 33.0953 42.6409ZM46.9163 24.7968L46.9162 24.7968L46.9218 24.8075C47.4212 25.7771 47.7367 27.5998 47.7367 30.4502C47.7367 33.1801 47.4242 34.979 46.9163 35.9947C46.6759 36.4756 46.3884 36.7853 46.0729 36.9803C45.7575 37.1753 45.3521 37.2939 44.8149 37.2939C44.2724 37.2939 43.8627 37.1774 43.5455 36.987C43.2308 36.7982 42.9473 36.5011 42.7108 36.0439C42.2061 35.0303 41.893 33.1825 41.893 30.3413C41.893 27.6114 42.2056 25.8125 42.7134 24.7968C42.9539 24.3159 43.2414 24.0061 43.5568 23.8111C43.8722 23.6162 44.2776 23.4976 44.8149 23.4976C45.3521 23.4976 45.7575 23.6162 46.0729 23.8111C46.3884 24.0061 46.6759 24.3159 46.9163 24.7968ZM62.0615 44.9393V45.9393H63.0615H75.862C81.9753 45.9393 86.9605 44.4654 90.7103 41.4115C94.5691 38.2688 96.3624 32.9646 96.3624 25.8202C96.3624 18.5698 94.4966 13.2717 90.4544 10.3084C86.565 7.42138 81.4509 6.02802 75.2084 6.02802H63.0615H62.0615V7.02802V44.9393ZM82.0447 19.5325L82.0489 19.5457L82.0534 19.5587C82.544 20.965 82.8147 23.0319 82.8147 25.8202C82.8147 28.6444 82.5627 30.7795 82.0983 32.2741C81.6364 33.7242 80.9667 34.6424 80.1619 35.1697C79.3231 35.7193 78.1363 36.0411 76.5157 36.0411H75.2824V15.9262H76.5702C78.117 15.9262 79.2793 16.2295 80.1281 16.7563L80.1388 16.763L80.1497 16.7694C80.9213 17.2217 81.583 18.0816 82.0447 19.5325ZM100.651 42.6409L100.656 42.6458C103.57 45.5994 107.516 47.0287 112.371 47.0287C115.562 47.0287 118.389 46.3628 120.815 44.9931C123.24 43.6238 125.102 41.6626 126.387 39.1337C127.706 36.6087 128.35 33.7046 128.35 30.4502C128.35 25.2619 126.956 21.1111 124.033 18.1481C121.154 15.1912 117.223 13.7628 112.371 13.7628C109.179 13.7628 106.353 14.4287 103.926 15.7984C101.502 17.1673 99.624 19.1269 98.3028 21.6528L98.3027 21.6527L98.2972 21.6636C97.0159 24.1873 96.3914 27.0892 96.3914 30.3413C96.3914 35.5273 97.7664 39.6772 100.651 42.6409ZM114.472 24.7968L114.472 24.7968L114.478 24.8075C114.977 25.7771 115.293 27.5998 115.293 30.4502C115.293 33.1801 114.98 34.979 114.472 35.9947C114.232 36.4756 113.944 36.7853 113.629 36.9803C113.313 37.1753 112.908 37.2939 112.371 37.2939C111.828 37.2939 111.419 37.1774 111.101 36.987C110.787 36.7982 110.503 36.501 110.267 36.0438C109.762 35.0301 109.449 33.1824 109.449 30.3413C109.449 27.6114 109.761 25.8125 110.269 24.7968C110.51 24.3159 110.797 24.0061 111.113 23.8111C111.428 23.6162 111.833 23.4976 112.371 23.4976C112.908 23.4976 113.313 23.6162 113.629 23.8111C113.944 24.0061 114.232 24.3159 114.472 24.7968Z" fill="black" stroke="black" stroke-width="2"/>
<path d="M33.1673 2.13511L33.3221 1H32.1765H2H1V2V10.3884V11.3884H2H10.2055V39.9113V40.9113H11.2055H22.4263H23.4263V39.9113V11.3884H31.0326H31.9055L32.0235 10.5235L33.1673 2.13511ZM33.0953 37.6129L33.1 37.6178C36.0143 40.5714 39.9606 42.0007 44.8149 42.0007C48.0063 42.0007 50.8327 41.3348 53.2591 39.965C55.6848 38.5957 57.5459 36.6343 58.8312 34.1052C60.1506 31.5803 60.7942 28.6764 60.7942 25.4222C60.7942 20.2339 59.3997 16.0832 56.4776 13.1201C53.5981 10.1632 49.6673 8.73477 44.8149 8.73477C41.6234 8.73477 38.797 9.40067 36.3706 10.7704C33.9458 12.1392 32.0682 14.0989 30.747 16.6248L30.7469 16.6247L30.7414 16.6356C29.4601 19.1593 28.8356 22.0611 28.8356 25.3133C28.8356 30.4993 30.2106 34.6491 33.0953 37.6129ZM46.9163 19.7687L46.9162 19.7688L46.9218 19.7795C47.4212 20.7491 47.7367 22.5717 47.7367 25.4222C47.7367 28.1521 47.4242 29.951 46.9163 30.9667C46.6759 31.4475 46.3884 31.7573 46.0729 31.9523C45.7575 32.1473 45.3521 32.2659 44.8149 32.2659C44.2724 32.2659 43.8627 32.1494 43.5455 31.959C43.2308 31.7702 42.9473 31.4731 42.7108 31.0159C42.2061 30.0022 41.893 28.1544 41.893 25.3133C41.893 22.5834 42.2056 20.7844 42.7134 19.7687C42.9539 19.2879 43.2414 18.9781 43.5568 18.7831C43.8722 18.5882 44.2776 18.4695 44.8149 18.4695C45.3521 18.4695 45.7575 18.5882 46.0729 18.7831C46.3884 18.9781 46.6759 19.2879 46.9163 19.7687ZM62.0615 39.9113V40.9113H63.0615H75.862C81.9753 40.9113 86.9605 39.4374 90.7103 36.3835C94.5691 33.2408 96.3624 27.9366 96.3624 20.7922C96.3624 13.5418 94.4966 8.24364 90.4544 5.2804C86.565 2.39336 81.4509 1 75.2084 1H63.0615H62.0615V2V39.9113ZM82.0447 14.5045L82.0489 14.5177L82.0534 14.5307C82.544 15.937 82.8147 18.0039 82.8147 20.7922C82.8147 23.6164 82.5627 25.7515 82.0983 27.2461C81.6364 28.6962 80.9667 29.6144 80.1619 30.1417C79.3231 30.6912 78.1363 31.0131 76.5157 31.0131H75.2824V10.8982H76.5702C78.117 10.8982 79.2793 11.2015 80.1281 11.7283L80.1388 11.735L80.1497 11.7413C80.9213 12.1937 81.583 13.0536 82.0447 14.5045ZM100.651 37.6129L100.656 37.6178C103.57 40.5714 107.516 42.0007 112.371 42.0007C115.562 42.0007 118.389 41.3348 120.815 39.965C123.24 38.5958 125.102 36.6346 126.387 34.1057C127.706 31.5807 128.35 28.6766 128.35 25.4222C128.35 20.2339 126.956 16.0831 124.033 13.12C121.154 10.1631 117.223 8.73477 112.371 8.73477C109.179 8.73477 106.353 9.40067 103.926 10.7704C101.502 12.1392 99.624 14.0989 98.3028 16.6248L98.3027 16.6247L98.2972 16.6356C97.0159 19.1593 96.3914 22.0611 96.3914 25.3133C96.3914 30.4993 97.7664 34.6491 100.651 37.6129ZM114.472 19.7687L114.472 19.7688L114.478 19.7795C114.977 20.7491 115.293 22.5717 115.293 25.4222C115.293 28.1521 114.98 29.951 114.472 30.9667C114.232 31.4475 113.944 31.7573 113.629 31.9523C113.313 32.1473 112.908 32.2659 112.371 32.2659C111.828 32.2659 111.419 32.1494 111.101 31.959C110.787 31.7702 110.503 31.473 110.267 31.0158C109.762 30.0021 109.449 28.1543 109.449 25.3133C109.449 22.5834 109.761 20.7844 110.269 19.7687C110.51 19.2879 110.797 18.9781 111.113 18.7831C111.428 18.5882 111.833 18.4695 112.371 18.4695C112.908 18.4695 113.313 18.5882 113.629 18.7831C113.944 18.9781 114.232 19.2879 114.472 19.7687Z" fill="white" stroke="black" stroke-width="2"/>
</svg>
